{"title":"The Revenant 2015 DVDSCR x264 AC3 TiTAN","uid":13044063,"size":2082156272,"categoryP":"video","categoryS":"movies","magnet":"?xt=urn:btih:565dd796c63e92bbc7df9ff6b0ebd65fbad0be84&amp;dn=The+Revenant+2015+DVDSCR+x264+AC3+TiTAN&amp;tr=udp%3A%2F%2Ftracker.leechers-paradise.org%3A6969&amp;tr=udp%3A%2F%2Fzer0day.ch%3A1337&amp;tr=udp%3A%2F%2Fopen.demonii.com%3A1337&amp;tr=udp%3A%2F%2Ftracker.coppersurfer.tk%3A6969&amp;tr=udp%3A%2F%2Fexodus.desync.com%3A6969","seeders":0,"leechers":0,"uploader":"TvTeam","files":3,"time":1450557502,"description":"------------------------------------------------------------------------\r\n\r  https://www.torrenting.com\r\n\r\nSign up is OPEN - for time being. Come and have fun.\r\n\r\n------------------------------------------------------------------------[img]http://i.imgur.com/BZMKPX9.jpg[/img]\r\n \nhttp://www.imdb.com/title/tt1663202/\r\n\r\nSource: DVDSCR\r\n\r\nNice pre release DVDSCR here.. Enjoy and Merry Christmas\r\n\r\nGeneral\r\n\r\nUnique ID                                : \r\nFormat                                   : Matroska\r\nFormat version                           : Version 2\r\nFile size                                : 1.94 GiB\r\nDuration                                 : 2h 36mn\r\nOverall bit rate mode                    : Variable\r\nOverall bit rate                         : 1 776 Kbps\r\n\r\nVideo\r\nID                                       : 1\r\nFormat                                   : AVC\r\nFormat/Info                              : Advanced Video Codec\r\nFormat profile                           :   \r\nFormat settings, CABAC                   : Yes\r\nFormat settings, ReFrames                : 3 frames\r\nCodec ID                                 : V_MPEG4/ISO/AVC\r\nDuration                                 : 2h 36mn\r\nBit rate mode                            : Variable\r\nBit rate                                 : 1 356 Kbps\r\nMaximum bit rate                         : 40.0 Mbps\r\nWidth                                    : 720 pixels\r\nHeight                                   : 304 pixels\r\nDisplay aspect ratio                     : 2.35:1\r\nFrame rate mode                          : Constant\r\nFrame rate                               : 23.976 fps\r\nColor space                              : YUV\r\nChroma subsampling                       : 4:2:0\r\nBit depth                                : 8 bits\r\nScan type                                : Progressive\r\nBits/(Pixel*Frame)                       : 0.258\r\nStream size                              : 1.48 GiB (76%)\r\nDefault                                  : Yes\r\nForced                                   : No\r\nColor primaries                          : BT.709\r\nTransfer characteristics                 : BT.709\r\nMatrix coefficients                      : BT.709\r\n\r\nAudio\r\nID                                       : 2\r\nFormat                                   : AC-3\r\nFormat/Info                              : Audio Coding 3\r\nMode extension                           : CM (complete main)\r\nFormat settings, Endianness              : Big\r\nCodec ID                                 : A_AC3\r\nDuration                                 : 2h 36mn\r\nBit rate mode                            : Constant\r\nBit rate                                 : 384 Kbps\r\nChannel(s)                               : 6 channels\r\nChannel positions                        : Front: L C R, Side: L R, LFE\r\nSampling rate                            : 48.0 KHz\r\nBit depth                                : 16 bits\r\nCompression mode                         : Lossy\r\nStream size                              : 429 MiB (22%)\r\nLanguage                                 : English\r\nDefault                                  : Yes\r\nForced                                   : No\r\n\r\n[img]http://i.imgur.com/um8qzpW.png[/img]\r\n[img]http://i.imgur.com/lzuyKke.png[/img]\r\n[img]http://i.imgur.com/knMtiCR.png[/img]\r\n[img]http://i.imgur.com/9qbdtQB.png[/img]\r\n[img]http://i.imgur.com/A5a8yzc.png[/img]\r\n[img]http://i.imgur.com/gAB6jEL.png[/img]","torrent":{"xt":"urn:btih:565dd796c63e92bbc7df9ff6b0ebd65fbad0be84","amp;dn":"The+Revenant+2015+DVDSCR+x264+AC3+TiTAN","amp;tr":["udp%3A%2F%2Ftracker.leechers-paradise.org%3A6969","udp%3A%2F%2Fzer0day.ch%3A1337","udp%3A%2F%2Fopen.demonii.com%3A1337","udp%3A%2F%2Ftracker.coppersurfer.tk%3A6969","udp%3A%2F%2Fexodus.desync.com%3A6969"],"infoHash":"565dd796c63e92bbc7df9ff6b0ebd65fbad0be84","infoHashBuffer":{"type":"Buffer","data":[86,93,215,150,198,62,146,187,199,223,159,246,176,235,214,95,186,208,190,132]},"announce":[],"urlList":[]}}